<svg width="400" height="200" viewBox="0 0 400 200" xmlns="http://www.w3.org/2000/svg">
  <rect width="400" height="200" fill="#023020" />
  <path d="M300 50 L310 60 L320 50 L330 60 L340 50 L340 70 L330 80 L340 90 L330 100 L340 110 L330 120 L340 130 L320 130 L310 140 L300 130 L290 140 L280 130 L260 130 L270 120 L260 110 L270 100 L260 90 L270 80 L260 70 L260 50 L280 50 L290 60 L300 50 Z" fill="#D4AF37" opacity="0.8"/>
  <path d="M280 70 L320 70 M280 90 L320 90 M280 110 L320 110 M300 70 L300 110" stroke="#D4AF37" stroke-width="4" stroke-linecap="round"/>
  <text x="100" y="100" font-family="Arial" font-size="40" fill="white" font-weight="bold">ReserveService</text>
  <text x="100" y="130" font-family="Arial" font-size="20" fill="#D4AF37">cerca trova</text>
</svg>