<svg xmlns="http://www.w3.org/2000/svg" width="80" height="auto" viewBox="0 0 349 420" version="1.1"><path d="M 88 65 L 88 119 92.490 119 L 96.981 119 97.240 70.250 L 97.500 21.500 211.750 21.246 L 326 20.992 326 155.496 L 326 290 291.500 290 L 257 290 257 294.500 L 257 299 296 299 L 335 299 335 155 L 335 11 211.500 11 L 88 11 88 65 M 234.686 34.750 C 234.449 35.163, 233.952 37.590, 233.582 40.145 C 233.054 43.786, 232.432 44.918, 230.704 45.382 C 226.438 46.526, 225.300 45.991, 223.500 42 C 221.456 37.468, 221.153 37.388, 214.564 39.633 L 209.772 41.266 210.419 46.983 C 210.934 51.536, 210.743 52.968, 209.485 54.012 C 208.132 55.136, 207.303 54.736, 203.703 51.227 L 199.500 47.130 197 49.183 C 195.625 50.313, 193.466 52.053, 192.203 53.050 L 189.905 54.862 193.031 60.400 C 196.135 65.901, 196.153 66.802, 193.221 70.219 C 191.846 71.821, 191.470 71.702, 187.693 68.469 C 185.464 66.561, 183.098 65, 182.436 65 C 181.774 65, 179.601 66.806, 177.607 69.013 L 173.982 73.026 179.491 81.254 C 182.521 85.779, 185 90.099, 185 90.852 C 185 92.182, 182.491 92.056, 175.451 90.374 C 173.713 89.958, 173.143 90.704, 171.701 95.280 C 170.765 98.248, 170 101.112, 170 101.645 C 170 102.178, 173.150 104.137, 177 106 C 181.653 108.251, 184 109.965, 184 111.111 C 184 112.060, 184.273 113.548, 184.607 114.418 C 185.106 115.720, 184.397 116, 180.607 116 L 176 116 176 122.433 C 176 129.643, 175.478 129.173, 185.454 130.948 C 194.945 132.637, 194.963 133.772, 185.610 140.577 L 182.755 142.654 186.128 147.809 C 187.982 150.644, 189.796 152.972, 190.157 152.982 C 190.518 152.992, 193.823 151.650, 197.501 149.999 C 204.017 147.076, 204.264 147.043, 207.095 148.715 C 208.693 149.659, 210 150.750, 210 151.139 C 210 151.528, 208.805 153.267, 207.344 155.004 L 204.687 158.161 209.106 162.579 L 213.524 166.998 220.012 162.698 C 228.177 157.286, 230.056 157.486, 229.735 163.731 L 229.500 168.322 234.500 169.642 C 237.250 170.367, 239.843 170.970, 240.263 170.981 C 240.682 170.991, 242.090 168.592, 243.392 165.648 C 245.035 161.933, 246.484 160.102, 248.129 159.662 C 253.128 158.324, 253.868 158.762, 254.193 163.250 L 254.500 167.500 260.256 167.800 C 266.769 168.140, 267.174 167.690, 268.536 158.609 C 269.239 153.919, 271.081 150.994, 273.321 151.007 C 273.970 151.011, 275.571 152.586, 276.879 154.507 C 278.187 156.428, 279.723 158, 280.291 158 C 280.860 158, 283.466 156.626, 286.084 154.946 L 290.842 151.893 288.421 146.418 C 285.588 140.012, 285.581 139.955, 287.386 137.487 C 288.716 135.668, 288.922 135.724, 292.528 138.891 L 296.285 142.189 300.825 137.649 L 305.366 133.108 301.112 127.043 C 295.824 119.506, 295.968 117.399, 301.745 117.763 C 305.879 118.025, 305.925 117.990, 307.017 113.763 C 307.623 111.419, 308.342 108.729, 308.615 107.787 C 308.971 106.557, 308.145 105.670, 305.686 104.642 C 303.803 103.855, 301.518 102.151, 300.609 100.856 C 299.026 98.601, 299.053 98.472, 301.228 97.850 C 302.478 97.492, 305.188 97.155, 307.250 97.100 L 311 97 311 90.573 L 311 84.145 303.500 82.935 C 298.427 82.117, 296 81.285, 296 80.363 C 296 79.613, 296.337 78.981, 296.750 78.957 C 297.163 78.934, 299.477 77.179, 301.893 75.057 L 306.286 71.199 304.143 67.850 C 299.369 60.386, 299.881 60.590, 293.605 63.668 C 288.465 66.189, 287.857 66.286, 286.396 64.824 C 284.934 63.362, 285.100 62.896, 288.362 59.285 L 291.924 55.342 287.572 51.070 L 283.220 46.799 278.019 50.301 C 272.919 53.736, 272.762 53.771, 269.876 52.152 C 267.691 50.926, 267.076 49.984, 267.490 48.500 C 269.475 41.386, 269.502 41.462, 264.157 39.163 C 261.392 37.973, 258.763 37.003, 258.315 37.008 C 257.867 37.012, 256.474 38.812, 255.220 41.008 C 253.575 43.888, 252.285 45, 250.585 45 C 248.481 45, 248.157 44.415, 247.543 39.500 L 246.856 34 240.987 34 C 237.759 34, 234.924 34.337, 234.686 34.750 M 230.251 59.456 C 221.512 61.439, 215.015 65.273, 207.982 72.597 C 201.070 79.795, 197.618 86.585, 195.956 96.250 C 191.907 119.790, 209.120 143.179, 233.462 147.212 C 252.466 150.361, 271.890 140.118, 280.694 122.305 C 283.910 115.798, 284.447 113.678, 284.811 106.062 C 285.450 92.707, 281.836 82.359, 273.192 72.791 C 262.700 61.177, 245.795 55.928, 230.251 59.456 M 228 62.832 C 220.119 65.770, 215.578 68.675, 210.680 73.911 C 194.970 90.707, 195.400 115.824, 211.670 131.709 C 217.963 137.853, 222.547 140.412, 231.251 142.644 C 255.362 148.825, 280.334 130.222, 281.794 104.992 C 282.540 92.113, 278.485 81.703, 269.296 72.910 C 260.519 64.510, 251.746 60.958, 240.072 61.078 C 235.627 61.123, 230.642 61.848, 228 62.832 M 233.733 75.088 C 226.869 76.705, 219.317 82.731, 215.670 89.500 C 213.920 92.748, 213.514 95.192, 213.511 102.500 C 213.507 112.607, 214.421 115.018, 220.676 121.404 C 234.444 135.459, 256.957 131.853, 266.077 114.132 C 269.485 107.509, 269.331 97.241, 265.712 89.844 C 259.979 78.126, 246.750 72.022, 233.733 75.088 M 116.508 140.250 C 116.272 140.938, 115.499 144.840, 114.790 148.922 L 113.500 156.344 107.665 157.508 L 101.830 158.672 99.415 153.212 C 98.087 150.208, 96.993 147.470, 96.985 147.126 C 96.976 146.782, 96.579 145.883, 96.101 145.129 C 95.389 144.006, 93.492 144.337, 85.616 146.961 C 80.327 148.723, 76 150.495, 76 150.899 C 76 151.302, 76.455 154.303, 77.011 157.566 C 77.567 160.830, 78.218 164.671, 78.457 166.102 C 78.790 168.101, 78.211 169.207, 75.957 170.874 L 73.023 173.043 66.762 166.467 L 60.500 159.892 52.250 165.971 C 47.712 169.315, 44 172.259, 44 172.512 C 44 172.766, 46.096 177.192, 48.657 182.348 L 53.313 191.722 50.447 195.611 C 48.871 197.750, 47.458 199.680, 47.308 199.899 C 47.158 200.119, 43.610 197.465, 39.423 194.002 L 31.811 187.705 24.488 195.103 L 17.165 202.500 26.410 215.426 C 33.293 225.049, 35.542 228.946, 35.211 230.676 C 34.684 233.432, 35.490 233.399, 25.259 231.085 L 17.019 229.221 14.955 236.360 C 13.821 240.287, 12.486 244.750, 11.989 246.277 C 11.094 249.026, 11.199 249.110, 22.549 254.760 C 28.854 257.898, 34.196 261.149, 34.419 261.983 C 34.643 262.817, 35.100 265.132, 35.435 267.128 C 36.147 271.365, 35.016 271.964, 26.250 271.986 L 21 272 21 282.433 C 21 291.514, 21.227 292.929, 22.750 293.359 C 23.713 293.630, 29.225 294.610, 35 295.536 C 44.905 297.124, 49.045 298.864, 48.966 301.405 C 48.947 302.007, 45.362 305.200, 41 308.500 C 36.638 311.800, 33.053 314.939, 33.034 315.476 C 32.981 317, 43.379 331.934, 44.500 331.942 C 45.050 331.945, 50.448 329.736, 56.497 327.032 C 68.627 321.609, 67.260 321.595, 74.996 327.221 C 77.651 329.152, 77.757 328.922, 70.562 336.773 L 67.563 340.046 75.031 347.462 L 82.500 354.877 92.849 347.551 C 101.615 341.347, 103.604 340.336, 105.849 340.946 C 108.767 341.739, 109.035 343.441, 107.597 352.034 L 106.838 356.569 116.827 359.164 L 126.816 361.760 130.998 352.504 L 135.181 343.247 139.730 342.624 C 148.343 341.443, 148 341.178, 148 349 L 148 356 158.481 356 C 170.560 356, 168.957 357.723, 171.776 341.701 C 173.364 332.673, 173.742 331.749, 176.569 329.967 L 179.638 328.033 184.399 334.516 C 187.017 338.082, 189.660 341, 190.272 341 C 190.884 341, 194.919 338.679, 199.239 335.843 C 204.349 332.489, 206.909 330.205, 206.566 329.310 C 206.275 328.553, 204.407 324.139, 202.415 319.501 L 198.792 311.068 201.146 308.089 C 202.441 306.451, 203.744 305.086, 204.043 305.055 C 204.342 305.025, 207.248 307.250, 210.500 310 C 213.752 312.750, 216.670 315, 216.984 315 C 217.297 315, 220.671 311.859, 224.481 308.020 L 231.407 301.039 224.059 290.382 C 217.525 280.905, 216.818 279.435, 217.678 277.112 C 218.209 275.675, 219.062 274.570, 219.572 274.656 C 220.082 274.742, 223.021 275.123, 226.103 275.503 L 231.706 276.194 233.853 267.633 C 235.034 262.925, 236 258.449, 236 257.688 C 236 256.927, 234.244 255.512, 232.098 254.544 C 227.736 252.577, 220.233 245.433, 221.353 244.313 C 221.751 243.915, 225.097 243.437, 228.788 243.249 C 240.915 242.633, 240.112 243.474, 239.785 231.737 L 239.500 221.529 228.140 219.355 C 221.893 218.159, 216.362 216.762, 215.850 216.250 C 215.277 215.677, 218.393 212.350, 223.980 207.571 L 233.040 199.823 229.308 194.661 C 227.256 191.823, 224.687 188.262, 223.600 186.750 C 222.513 185.238, 221.077 184, 220.408 184 C 219.739 184, 215.308 185.864, 210.560 188.142 C 202.234 192.137, 201.877 192.217, 200.496 190.392 C 198.277 187.461, 198.615 186.569, 204.492 179.831 L 209.984 173.534 203.269 166.767 C 199.575 163.045, 195.940 160, 195.190 160 C 194.440 160, 190.492 162.305, 186.417 165.123 C 178.411 170.657, 177.165 170.747, 171.268 166.215 L 169.035 164.500 171.092 157.658 C 172.224 153.895, 173.003 150.674, 172.825 150.501 C 172.379 150.069, 155.232 143, 154.629 143 C 154.363 143, 152.547 145.588, 150.594 148.750 C 148.641 151.912, 146.649 155.095, 146.168 155.823 C 145.556 156.747, 144.194 156.939, 141.646 156.461 C 138.221 155.819, 138 155.550, 138 152.028 C 138 149.966, 137.714 146.191, 137.364 143.640 L 136.728 139 126.833 139 C 119.812 139, 116.813 139.363, 116.508 140.250 M 110.500 179.582 C 84.299 185.411, 63.049 205.684, 55.868 231.701 C 53.211 241.329, 52.965 258.134, 55.334 268.104 C 60.907 291.555, 80.939 312.699, 104.500 319.999 C 113.349 322.741, 129.156 323.699, 138.568 322.064 C 154.158 319.356, 166.953 312.144, 179.127 299.203 C 193.161 284.285, 198.520 269.418, 197.766 247.500 C 197.418 237.404, 196.874 234.132, 194.341 226.882 C 186.808 205.325, 168.605 187.879, 146.500 181.028 C 137.096 178.113, 120.158 177.433, 110.500 179.582 M 114.870 183.006 C 101.051 185.196, 90.012 191.048, 79.026 202.007 C 65.797 215.203, 60.129 227.830, 59.262 246.027 C 58.323 265.762, 63.504 280.821, 75.805 294.106 C 91.404 310.955, 108.534 317.987, 130.937 316.737 C 147.322 315.822, 161.029 309.657, 173.239 297.711 C 181.543 289.585, 186.709 281.537, 190.293 271.137 C 204.759 229.168, 174.457 184.820, 129.783 182.579 C 124.677 182.323, 117.966 182.515, 114.870 183.006 M 118 205.126 C 105.939 207.082, 91.916 217.313, 86.414 228.169 C 75.464 249.779, 81.813 274.389, 101.753 287.624 C 124.299 302.589, 155.011 293.820, 166.858 269.035 C 169.981 262.502, 170.477 260.407, 170.834 252.252 C 171.082 246.582, 170.747 241.087, 169.978 238.217 C 165.372 221.021, 150.717 207.877, 133 205.052 C 125.711 203.889, 125.621 203.890, 118 205.126 M 214.227 340.750 L 214.500 358.500 217.250 358.816 C 219.983 359.131, 220 359.094, 220 353.066 C 220 349.730, 220.412 347, 220.917 347 C 221.421 347, 222.693 349.587, 223.744 352.750 C 225.502 358.042, 225.914 358.525, 228.917 358.820 C 232.579 359.179, 232.578 359.367, 228.929 349.635 C 227.358 345.445, 227.294 344.474, 228.470 342.635 C 229.816 340.529, 230.429 336.164, 230.145 330.705 C 230.065 329.167, 228.895 326.805, 227.545 325.455 C 225.527 323.436, 224.101 323, 219.522 323 L 213.954 323 214.227 340.750 M 234 341 L 234 359 241.500 359 L 249 359 249 355.500 C 249 352.019, 248.976 352, 244.500 352 L 240 352 240 347.500 C 240 343.024, 240.019 343, 243.500 343 C 246.833 343, 247 342.833, 247 339.500 C 247 336.167, 246.833 336, 243.500 336 C 240.278 336, 240 335.762, 240 333 C 240 330.111, 240.167 330, 244.500 330 C 248.976 330, 249 329.981, 249 326.500 L 249 323 241.500 323 L 234 323 234 341 M 252.078 325.417 C 250.325 327.283, 249.816 328.977, 249.845 332.838 C 249.891 338.656, 251.282 341.355, 255.636 344.068 C 259.288 346.344, 260.334 349.164, 258.469 351.704 C 257.241 353.375, 257.075 353.304, 256.075 350.685 C 255.484 349.137, 255 347.449, 255 346.935 C 255 345.717, 250.293 345.718, 249.540 346.936 C 248.548 348.540, 250.798 356.379, 252.635 357.722 C 254.719 359.246, 259.404 359.389, 261.986 358.008 C 264.492 356.666, 266.322 350.740, 265.452 346.779 C 264.467 342.297, 263.013 340.206, 259.250 337.862 C 256.813 336.343, 256 335.121, 256 332.977 C 256 331.405, 256.500 329.809, 257.112 329.431 C 258.500 328.573, 259.964 330.775, 259.985 333.750 C 259.997 335.580, 260.560 336, 263 336 C 266.370 336, 266.661 334.921, 264.951 328.762 C 263.250 322.638, 256.369 320.850, 252.078 325.417 M 267 341 L 267 359 274.500 359 L 282 359 282 355.500 C 282 352.019, 281.976 352, 277.500 352 L 273 352 273 347.500 C 273 343.024, 273.019 343, 276.500 343 C 279.833 343, 280 342.833, 280 339.500 C 280 336.167, 279.833 336, 276.500 336 C 273.278 336, 273 335.762, 273 333 C 273 330.111, 273.167 330, 277.500 330 C 281.976 330, 282 329.981, 282 326.500 L 282 323 274.500 323 L 267 323 267 341 M 283.227 340.750 L 283.500 358.500 286.250 358.816 C 288.983 359.131, 289 359.094, 289 353.066 C 289 349.730, 289.413 347, 289.917 347 C 290.421 347, 291.693 349.587, 292.744 352.750 C 294.502 358.042, 294.914 358.525, 297.917 358.820 C 301.579 359.179, 301.578 359.367, 297.929 349.635 C 296.358 345.445, 296.294 344.474, 297.470 342.635 C 298.816 340.529, 299.429 336.164, 299.145 330.705 C 299.065 329.167, 297.895 326.805, 296.545 325.455 C 294.527 323.436, 293.101 323, 288.522 323 L 282.954 323 283.227 340.750 M 301.398 327.170 C 301.772 329.552, 303.242 337.688, 304.665 345.250 C 307.244 358.952, 307.263 359, 310 359 C 312.737 359, 312.756 358.952, 315.335 345.250 C 319.824 321.396, 319.757 322.786, 316.391 323.170 C 313.609 323.488, 313.437 323.822, 311.845 332 C 310.935 336.675, 310.098 340.275, 309.986 340 C 309.873 339.725, 309.043 335.900, 308.141 331.500 C 306.576 323.871, 306.366 323.485, 303.609 323.170 C 300.729 322.841, 300.721 322.855, 301.398 327.170 M 320 341 L 320 359 327.500 359 L 335 359 335 355.500 C 335 352.012, 334.984 352, 330.443 352 L 325.885 352 326.193 347.750 C 326.481 343.761, 326.699 343.481, 329.750 343.187 C 332.725 342.900, 333 342.583, 333 339.437 C 333 336.164, 332.830 336, 329.434 336 C 326.133 336, 325.891 335.795, 326.184 333.250 C 326.467 330.789, 326.947 330.468, 330.750 330.193 C 334.867 329.895, 335 329.778, 335 326.443 L 335 323 327.500 323 L 320 323 320 341 M 220 334 C 220 337.287, 220.345 338, 221.933 338 C 222.996 338, 224.151 337.100, 224.500 336 C 225.439 333.042, 224.137 330, 221.933 330 C 220.345 330, 220 330.713, 220 334 M 289 334 C 289 337.287, 289.345 338, 290.933 338 C 293.137 338, 294.439 334.958, 293.500 332 C 293.151 330.900, 291.996 330, 290.933 330 C 289.345 330, 289 330.713, 289 334 M 184.635 374.073 C 181.596 376.463, 181.212 380, 183.750 382.222 C 184.713 383.064, 187.643 384.686, 190.262 385.826 C 198.715 389.504, 197.641 393.500, 188.199 393.500 C 181.142 393.500, 179.882 395.182, 186.151 396.233 C 191.378 397.110, 197.671 395.517, 199.300 392.905 C 201.467 389.430, 199.289 386.281, 192.499 383.073 C 188.925 381.384, 186 379.417, 186 378.701 C 186 376.247, 188.405 375, 193.141 375 C 197.961 375, 200.274 373.703, 197.412 372.605 C 193.896 371.255, 187.245 372.019, 184.635 374.073 M 205 384 L 205 396 214.583 396 C 221.804 396, 224.065 395.692, 223.753 394.750 C 223.487 393.944, 220.795 393.396, 216.170 393.206 L 209 392.912 209 389.506 L 209 386.100 214.671 385.800 C 222.812 385.369, 223.161 383, 215.083 383 L 209 383 209 379 L 209 375 215.393 375 C 220.153 375, 221.933 374.617, 222.362 373.500 C 222.847 372.235, 221.530 372, 213.969 372 L 205 372 205 384 M 228 383.863 C 228 395.333, 228.110 396, 230 396 C 231.704 396, 232 395.333, 232 391.500 C 232 387.382, 232.210 387, 234.468 387 C 236.233 387, 237.872 388.271, 240.218 391.461 C 242.379 394.398, 244.269 395.935, 245.750 395.961 C 248.710 396.012, 248.616 395.589, 244.574 390.655 L 241.147 386.474 243.574 384.313 C 246.894 381.355, 246.858 376.608, 243.500 374.408 C 242.125 373.507, 238.075 372.535, 234.500 372.248 L 228 371.726 228 383.863 M 249 372.644 C 249 373.075, 251.122 378.527, 253.716 384.761 C 258.319 395.824, 258.502 396.087, 261.389 395.797 C 264.151 395.520, 264.658 394.744, 269.101 384 C 271.716 377.675, 273.423 372.345, 272.895 372.156 C 270.640 371.348, 269.247 373.294, 265.572 382.387 C 263.432 387.682, 261.544 391.877, 261.377 391.710 C 261.209 391.543, 259.305 387.152, 257.144 381.953 C 254.124 374.685, 252.729 372.426, 251.108 372.180 C 249.949 372.005, 249 372.213, 249 372.644 M 277 384 C 277 395.333, 277.111 396, 279 396 C 280.889 396, 281 395.333, 281 384 C 281 372.667, 280.889 372, 279 372 C 277.111 372, 277 372.667, 277 384 M 294.270 373.460 C 287.145 376.607, 284.749 386.456, 289.750 392.038 C 292.770 395.409, 299.237 397.428, 303.779 396.419 C 309.268 395.199, 310 394.835, 310 393.326 C 310 392.330, 309.439 392.001, 308.413 392.395 C 298.745 396.105, 290.814 391.849, 291.840 383.500 C 292.575 377.520, 296.218 375, 304.130 375 C 307.713 375, 309.048 374.639, 308.754 373.750 C 308.158 371.941, 298.160 371.741, 294.270 373.460 M 314 384 L 314 396 323.500 396 C 331.278 396, 333 395.728, 333 394.500 C 333 393.310, 331.556 393, 326 393 L 319 393 319 389.550 L 319 386.100 324.671 385.800 C 332.812 385.369, 333.161 383, 325.083 383 L 319 383 319 379 L 319 375 325.500 375 C 330.611 375, 332 374.679, 332 373.500 C 332 372.278, 330.333 372, 323 372 L 314 372 314 384 M 232 379.500 C 232 383.753, 232.152 384, 234.777 384 C 238.003 384, 242 381.510, 242 379.500 C 242 377.490, 238.003 375, 234.777 375 C 232.152 375, 232 375.247, 232 379.500" stroke="none" fill="#152c5b" fill-rule="evenodd"/><path d="M 0 210.003 L 0 420.006 174.750 419.753 L 349.500 419.500 349.752 209.750 L 350.005 -0 175.002 -0 L 0 0 0 210.003 M 0.491 210.500 C 0.491 326, 0.607 373.102, 0.750 315.170 C 0.893 257.239, 0.893 162.739, 0.750 105.170 C 0.607 47.602, 0.491 95, 0.491 210.500 M 88 65 L 88 119 92.490 119 L 96.981 119 97.240 70.250 L 97.500 21.500 211.750 21.246 L 326 20.992 326 155.496 L 326 290 291.500 290 L 257 290 257 294.500 L 257 299 296 299 L 335 299 335 155 L 335 11 211.500 11 L 88 11 88 65 M 234.686 34.750 C 234.449 35.163, 233.952 37.590, 233.582 40.145 C 233.054 43.786, 232.432 44.918, 230.704 45.382 C 226.438 46.526, 225.300 45.991, 223.500 42 C 221.456 37.468, 221.153 37.388, 214.564 39.633 L 209.772 41.266 210.419 46.983 C 210.934 51.536, 210.743 52.968, 209.485 54.012 C 208.132 55.136, 207.303 54.736, 203.703 51.227 L 199.500 47.130 197 49.183 C 195.625 50.313, 193.466 52.053, 192.203 53.050 L 189.905 54.862 193.031 60.400 C 196.135 65.901, 196.153 66.802, 193.221 70.219 C 191.846 71.821, 191.470 71.702, 187.693 68.469 C 185.464 66.561, 183.098 65, 182.436 65 C 181.774 65, 179.601 66.806, 177.607 69.013 L 173.982 73.026 179.491 81.254 C 182.521 85.779, 185 90.099, 185 90.852 C 185 92.182, 182.491 92.056, 175.451 90.374 C 173.713 89.958, 173.143 90.704, 171.701 95.280 C 170.765 98.248, 170 101.112, 170 101.645 C 170 102.178, 173.150 104.137, 177 106 C 181.653 108.251, 184 109.965, 184 111.111 C 184 112.060, 184.273 113.548, 184.607 114.418 C 185.106 115.720, 184.397 116, 180.607 116 L 176 116 176 122.433 C 176 129.643, 175.478 129.173, 185.454 130.948 C 194.945 132.637, 194.963 133.772, 185.610 140.577 L 182.755 142.654 186.128 147.809 C 187.982 150.644, 189.796 152.972, 190.157 152.982 C 190.518 152.992, 193.823 151.650, 197.501 149.999 C 204.017 147.076, 204.264 147.043, 207.095 148.715 C 208.693 149.659, 210 150.750, 210 151.139 C 210 151.528, 208.805 153.267, 207.344 155.004 L 204.687 158.161 209.106 162.579 L 213.524 166.998 220.012 162.698 C 228.177 157.286, 230.056 157.486, 229.735 163.731 L 229.500 168.322 234.500 169.642 C 237.250 170.367, 239.843 170.970, 240.263 170.981 C 240.682 170.991, 242.090 168.592, 243.392 165.648 C 245.035 161.933, 246.484 160.102, 248.129 159.662 C 253.128 158.324, 253.868 158.762, 254.193 163.250 L 254.500 167.500 260.256 167.800 C 266.769 168.140, 267.174 167.690, 268.536 158.609 C 269.239 153.919, 271.081 150.994, 273.321 151.007 C 273.970 151.011, 275.571 152.586, 276.879 154.507 C 278.187 156.428, 279.723 158, 280.291 158 C 280.860 158, 283.466 156.626, 286.084 154.946 L 290.842 151.893 288.421 146.418 C 285.588 140.012, 285.581 139.955, 287.386 137.487 C 288.716 135.668, 288.922 135.724, 292.528 138.891 L 296.285 142.189 300.825 137.649 L 305.366 133.108 301.112 127.043 C 295.824 119.506, 295.968 117.399, 301.745 117.763 C 305.879 118.025, 305.925 117.990, 307.017 113.763 C 307.623 111.419, 308.342 108.729, 308.615 107.787 C 308.971 106.557, 308.145 105.670, 305.686 104.642 C 303.803 103.855, 301.518 102.151, 300.609 100.856 C 299.026 98.601, 299.053 98.472, 301.228 97.850 C 302.478 97.492, 305.188 97.155, 307.250 97.100 L 311 97 311 90.573 L 311 84.145 303.500 82.935 C 298.427 82.117, 296 81.285, 296 80.363 C 296 79.613, 296.337 78.981, 296.750 78.957 C 297.163 78.934, 299.477 77.179, 301.893 75.057 L 306.286 71.199 304.143 67.850 C 299.369 60.386, 299.881 60.590, 293.605 63.668 C 288.465 66.189, 287.857 66.286, 286.396 64.824 C 284.934 63.362, 285.100 62.896, 288.362 59.285 L 291.924 55.342 287.572 51.070 L 283.220 46.799 278.019 50.301 C 272.919 53.736, 272.762 53.771, 269.876 52.152 C 267.691 50.926, 267.076 49.984, 267.490 48.500 C 269.475 41.386, 269.502 41.462, 264.157 39.163 C 261.392 37.973, 258.763 37.003, 258.315 37.008 C 257.867 37.012, 256.474 38.812, 255.220 41.008 C 253.575 43.888, 252.285 45, 250.585 45 C 248.481 45, 248.157 44.415, 247.543 39.500 L 246.856 34 240.987 34 C 237.759 34, 234.924 34.337, 234.686 34.750 M 230.251 59.456 C 221.512 61.439, 215.015 65.273, 207.982 72.597 C 201.070 79.795, 197.618 86.585, 195.956 96.250 C 191.907 119.790, 209.120 143.179, 233.462 147.212 C 252.466 150.361, 271.890 140.118, 280.694 122.305 C 283.910 115.798, 284.447 113.678, 284.811 106.062 C 285.450 92.707, 281.836 82.359, 273.192 72.791 C 262.700 61.177, 245.795 55.928, 230.251 59.456 M 228 62.832 C 220.119 65.770, 215.578 68.675, 210.680 73.911 C 194.970 90.707, 195.400 115.824, 211.670 131.709 C 217.963 137.853, 222.547 140.412, 231.251 142.644 C 255.362 148.825, 280.334 130.222, 281.794 104.992 C 282.540 92.113, 278.485 81.703, 269.296 72.910 C 260.519 64.510, 251.746 60.958, 240.072 61.078 C 235.627 61.123, 230.642 61.848, 228 62.832 M 233.733 75.088 C 226.869 76.705, 219.317 82.731, 215.670 89.500 C 213.920 92.748, 213.514 95.192, 213.511 102.500 C 213.507 112.607, 214.421 115.018, 220.676 121.404 C 234.444 135.459, 256.957 131.853, 266.077 114.132 C 269.485 107.509, 269.331 97.241, 265.712 89.844 C 259.979 78.126, 246.750 72.022, 233.733 75.088 M 116.508 140.250 C 116.272 140.938, 115.499 144.840, 114.790 148.922 L 113.500 156.344 107.665 157.508 L 101.830 158.672 99.415 153.212 C 98.087 150.208, 96.993 147.470, 96.985 147.126 C 96.976 146.782, 96.579 145.883, 96.101 145.129 C 95.389 144.006, 93.492 144.337, 85.616 146.961 C 80.327 148.723, 76 150.495, 76 150.899 C 76 151.302, 76.455 154.303, 77.011 157.566 C 77.567 160.830, 78.218 164.671, 78.457 166.102 C 78.790 168.101, 78.211 169.207, 75.957 170.874 L 73.023 173.043 66.762 166.467 L 60.500 159.892 52.250 165.971 C 47.712 169.315, 44 172.259, 44 172.512 C 44 172.766, 46.096 177.192, 48.657 182.348 L 53.313 191.722 50.447 195.611 C 48.871 197.750, 47.458 199.680, 47.308 199.899 C 47.158 200.119, 43.610 197.465, 39.423 194.002 L 31.811 187.705 24.488 195.103 L 17.165 202.500 26.410 215.426 C 33.293 225.049, 35.542 228.946, 35.211 230.676 C 34.684 233.432, 35.490 233.399, 25.259 231.085 L 17.019 229.221 14.955 236.360 C 13.821 240.287, 12.486 244.750, 11.989 246.277 C 11.094 249.026, 11.199 249.110, 22.549 254.760 C 28.854 257.898, 34.196 261.149, 34.419 261.983 C 34.643 262.817, 35.100 265.132, 35.435 267.128 C 36.147 271.365, 35.016 271.964, 26.250 271.986 L 21 272 21 282.433 C 21 291.514, 21.227 292.929, 22.750 293.359 C 23.713 293.630, 29.225 294.610, 35 295.536 C 44.905 297.124, 49.045 298.864, 48.966 301.405 C 48.947 302.007, 45.362 305.200, 41 308.500 C 36.638 311.800, 33.053 314.939, 33.034 315.476 C 32.981 317, 43.379 331.934, 44.500 331.942 C 45.050 331.945, 50.448 329.736, 56.497 327.032 C 68.627 321.609, 67.260 321.595, 74.996 327.221 C 77.651 329.152, 77.757 328.922, 70.562 336.773 L 67.563 340.046 75.031 347.462 L 82.500 354.877 92.849 347.551 C 101.615 341.347, 103.604 340.336, 105.849 340.946 C 108.767 341.739, 109.035 343.441, 107.597 352.034 L 106.838 356.569 116.827 359.164 L 126.816 361.760 130.998 352.504 L 135.181 343.247 139.730 342.624 C 148.343 341.443, 148 341.178, 148 349 L 148 356 158.481 356 C 170.560 356, 168.957 357.723, 171.776 341.701 C 173.364 332.673, 173.742 331.749, 176.569 329.967 L 179.638 328.033 184.399 334.516 C 187.017 338.082, 189.660 341, 190.272 341 C 190.884 341, 194.919 338.679, 199.239 335.843 C 204.349 332.489, 206.909 330.205, 206.566 329.310 C 206.275 328.553, 204.407 324.139, 202.415 319.501 L 198.792 311.068 201.146 308.089 C 202.441 306.451, 203.744 305.086, 204.043 305.055 C 204.342 305.025, 207.248 307.250, 210.500 310 C 213.752 312.750, 216.670 315, 216.984 315 C 217.297 315, 220.671 311.859, 224.481 308.020 L 231.407 301.039 224.059 290.382 C 217.525 280.905, 216.818 279.435, 217.678 277.112 C 218.209 275.675, 219.062 274.570, 219.572 274.656 C 220.082 274.742, 223.021 275.123, 226.103 275.503 L 231.706 276.194 233.853 267.633 C 235.034 262.925, 236 258.449, 236 257.688 C 236 256.927, 234.244 255.512, 232.098 254.544 C 227.736 252.577, 220.233 245.433, 221.353 244.313 C 221.751 243.915, 225.097 243.437, 228.788 243.249 C 240.915 242.633, 240.112 243.474, 239.785 231.737 L 239.500 221.529 228.140 219.355 C 221.893 218.159, 216.362 216.762, 215.850 216.250 C 215.277 215.677, 218.393 212.350, 223.980 207.571 L 233.040 199.823 229.308 194.661 C 227.256 191.823, 224.687 188.262, 223.600 186.750 C 222.513 185.238, 221.077 184, 220.408 184 C 219.739 184, 215.308 185.864, 210.560 188.142 C 202.234 192.137, 201.877 192.217, 200.496 190.392 C 198.277 187.461, 198.615 186.569, 204.492 179.831 L 209.984 173.534 203.269 166.767 C 199.575 163.045, 195.940 160, 195.190 160 C 194.440 160, 190.492 162.305, 186.417 165.123 C 178.411 170.657, 177.165 170.747, 171.268 166.215 L 169.035 164.500 171.092 157.658 C 172.224 153.895, 173.003 150.674, 172.825 150.501 C 172.379 150.069, 155.232 143, 154.629 143 C 154.363 143, 152.547 145.588, 150.594 148.750 C 148.641 151.912, 146.649 155.095, 146.168 155.823 C 145.556 156.747, 144.194 156.939, 141.646 156.461 C 138.221 155.819, 138 155.550, 138 152.028 C 138 149.966, 137.714 146.191, 137.364 143.640 L 136.728 139 126.833 139 C 119.812 139, 116.813 139.363, 116.508 140.250 M 110.500 179.582 C 84.299 185.411, 63.049 205.684, 55.868 231.701 C 53.211 241.329, 52.965 258.134, 55.334 268.104 C 60.907 291.555, 80.939 312.699, 104.500 319.999 C 113.349 322.741, 129.156 323.699, 138.568 322.064 C 154.158 319.356, 166.953 312.144, 179.127 299.203 C 193.161 284.285, 198.520 269.418, 197.766 247.500 C 197.418 237.404, 196.874 234.132, 194.341 226.882 C 186.808 205.325, 168.605 187.879, 146.500 181.028 C 137.096 178.113, 120.158 177.433, 110.500 179.582 M 114.870 183.006 C 101.051 185.196, 90.012 191.048, 79.026 202.007 C 65.797 215.203, 60.129 227.830, 59.262 246.027 C 58.323 265.762, 63.504 280.821, 75.805 294.106 C 91.404 310.955, 108.534 317.987, 130.937 316.737 C 147.322 315.822, 161.029 309.657, 173.239 297.711 C 181.543 289.585, 186.709 281.537, 190.293 271.137 C 204.759 229.168, 174.457 184.820, 129.783 182.579 C 124.677 182.323, 117.966 182.515, 114.870 183.006 M 118 205.126 C 105.939 207.082, 91.916 217.313, 86.414 228.169 C 75.464 249.779, 81.813 274.389, 101.753 287.624 C 124.299 302.589, 155.011 293.820, 166.858 269.035 C 169.981 262.502, 170.477 260.407, 170.834 252.252 C 171.082 246.582, 170.747 241.087, 169.978 238.217 C 165.372 221.021, 150.717 207.877, 133 205.052 C 125.711 203.889, 125.621 203.890, 118 205.126 M 214.227 340.750 L 214.500 358.500 217.250 358.816 C 219.983 359.131, 220 359.094, 220 353.066 C 220 349.730, 220.412 347, 220.917 347 C 221.421 347, 222.693 349.587, 223.744 352.750 C 225.502 358.042, 225.914 358.525, 228.917 358.820 C 232.579 359.179, 232.578 359.367, 228.929 349.635 C 227.358 345.445, 227.294 344.474, 228.470 342.635 C 229.816 340.529, 230.429 336.164, 230.145 330.705 C 230.065 329.167, 228.895 326.805, 227.545 325.455 C 225.527 323.436, 224.101 323, 219.522 323 L 213.954 323 214.227 340.750 M 234 341 L 234 359 241.500 359 L 249 359 249 355.500 C 249 352.019, 248.976 352, 244.500 352 L 240 352 240 347.500 C 240 343.024, 240.019 343, 243.500 343 C 246.833 343, 247 342.833, 247 339.500 C 247 336.167, 246.833 336, 243.500 336 C 240.278 336, 240 335.762, 240 333 C 240 330.111, 240.167 330, 244.500 330 C 248.976 330, 249 329.981, 249 326.500 L 249 323 241.500 323 L 234 323 234 341 M 252.078 325.417 C 250.325 327.283, 249.816 328.977, 249.845 332.838 C 249.891 338.656, 251.282 341.355, 255.636 344.068 C 259.288 346.344, 260.334 349.164, 258.469 351.704 C 257.241 353.375, 257.075 353.304, 256.075 350.685 C 255.484 349.137, 255 347.449, 255 346.935 C 255 345.717, 250.293 345.718, 249.540 346.936 C 248.548 348.540, 250.798 356.379, 252.635 357.722 C 254.719 359.246, 259.404 359.389, 261.986 358.008 C 264.492 356.666, 266.322 350.740, 265.452 346.779 C 264.467 342.297, 263.013 340.206, 259.250 337.862 C 256.813 336.343, 256 335.121, 256 332.977 C 256 331.405, 256.500 329.809, 257.112 329.431 C 258.500 328.573, 259.964 330.775, 259.985 333.750 C 259.997 335.580, 260.560 336, 263 336 C 266.370 336, 266.661 334.921, 264.951 328.762 C 263.250 322.638, 256.369 320.850, 252.078 325.417 M 267 341 L 267 359 274.500 359 L 282 359 282 355.500 C 282 352.019, 281.976 352, 277.500 352 L 273 352 273 347.500 C 273 343.024, 273.019 343, 276.500 343 C 279.833 343, 280 342.833, 280 339.500 C 280 336.167, 279.833 336, 276.500 336 C 273.278 336, 273 335.762, 273 333 C 273 330.111, 273.167 330, 277.500 330 C 281.976 330, 282 329.981, 282 326.500 L 282 323 274.500 323 L 267 323 267 341 M 283.227 340.750 L 283.500 358.500 286.250 358.816 C 288.983 359.131, 289 359.094, 289 353.066 C 289 349.730, 289.413 347, 289.917 347 C 290.421 347, 291.693 349.587, 292.744 352.750 C 294.502 358.042, 294.914 358.525, 297.917 358.820 C 301.579 359.179, 301.578 359.367, 297.929 349.635 C 296.358 345.445, 296.294 344.474, 297.470 342.635 C 298.816 340.529, 299.429 336.164, 299.145 330.705 C 299.065 329.167, 297.895 326.805, 296.545 325.455 C 294.527 323.436, 293.101 323, 288.522 323 L 282.954 323 283.227 340.750 M 301.398 327.170 C 301.772 329.552, 303.242 337.688, 304.665 345.250 C 307.244 358.952, 307.263 359, 310 359 C 312.737 359, 312.756 358.952, 315.335 345.250 C 319.824 321.396, 319.757 322.786, 316.391 323.170 C 313.609 323.488, 313.437 323.822, 311.845 332 C 310.935 336.675, 310.098 340.275, 309.986 340 C 309.873 339.725, 309.043 335.900, 308.141 331.500 C 306.576 323.871, 306.366 323.485, 303.609 323.170 C 300.729 322.841, 300.721 322.855, 301.398 327.170 M 320 341 L 320 359 327.500 359 L 335 359 335 355.500 C 335 352.012, 334.984 352, 330.443 352 L 325.885 352 326.193 347.750 C 326.481 343.761, 326.699 343.481, 329.750 343.187 C 332.725 342.900, 333 342.583, 333 339.437 C 333 336.164, 332.830 336, 329.434 336 C 326.133 336, 325.891 335.795, 326.184 333.250 C 326.467 330.789, 326.947 330.468, 330.750 330.193 C 334.867 329.895, 335 329.778, 335 326.443 L 335 323 327.500 323 L 320 323 320 341 M 220 334 C 220 337.287, 220.345 338, 221.933 338 C 222.996 338, 224.151 337.100, 224.500 336 C 225.439 333.042, 224.137 330, 221.933 330 C 220.345 330, 220 330.713, 220 334 M 289 334 C 289 337.287, 289.345 338, 290.933 338 C 293.137 338, 294.439 334.958, 293.500 332 C 293.151 330.900, 291.996 330, 290.933 330 C 289.345 330, 289 330.713, 289 334 M 184.635 374.073 C 181.596 376.463, 181.212 380, 183.750 382.222 C 184.713 383.064, 187.643 384.686, 190.262 385.826 C 198.715 389.504, 197.641 393.500, 188.199 393.500 C 181.142 393.500, 179.882 395.182, 186.151 396.233 C 191.378 397.110, 197.671 395.517, 199.300 392.905 C 201.467 389.430, 199.289 386.281, 192.499 383.073 C 188.925 381.384, 186 379.417, 186 378.701 C 186 376.247, 188.405 375, 193.141 375 C 197.961 375, 200.274 373.703, 197.412 372.605 C 193.896 371.255, 187.245 372.019, 184.635 374.073 M 205 384 L 205 396 214.583 396 C 221.804 396, 224.065 395.692, 223.753 394.750 C 223.487 393.944, 220.795 393.396, 216.170 393.206 L 209 392.912 209 389.506 L 209 386.100 214.671 385.800 C 222.812 385.369, 223.161 383, 215.083 383 L 209 383 209 379 L 209 375 215.393 375 C 220.153 375, 221.933 374.617, 222.362 373.500 C 222.847 372.235, 221.530 372, 213.969 372 L 205 372 205 384 M 228 383.863 C 228 395.333, 228.110 396, 230 396 C 231.704 396, 232 395.333, 232 391.500 C 232 387.382, 232.210 387, 234.468 387 C 236.233 387, 237.872 388.271, 240.218 391.461 C 242.379 394.398, 244.269 395.935, 245.750 395.961 C 248.710 396.012, 248.616 395.589, 244.574 390.655 L 241.147 386.474 243.574 384.313 C 246.894 381.355, 246.858 376.608, 243.500 374.408 C 242.125 373.507, 238.075 372.535, 234.500 372.248 L 228 371.726 228 383.863 M 249 372.644 C 249 373.075, 251.122 378.527, 253.716 384.761 C 258.319 395.824, 258.502 396.087, 261.389 395.797 C 264.151 395.520, 264.658 394.744, 269.101 384 C 271.716 377.675, 273.423 372.345, 272.895 372.156 C 270.640 371.348, 269.247 373.294, 265.572 382.387 C 263.432 387.682, 261.544 391.877, 261.377 391.710 C 261.209 391.543, 259.305 387.152, 257.144 381.953 C 254.124 374.685, 252.729 372.426, 251.108 372.180 C 249.949 372.005, 249 372.213, 249 372.644 M 277 384 C 277 395.333, 277.111 396, 279 396 C 280.889 396, 281 395.333, 281 384 C 281 372.667, 280.889 372, 279 372 C 277.111 372, 277 372.667, 277 384 M 294.270 373.460 C 287.145 376.607, 284.749 386.456, 289.750 392.038 C 292.770 395.409, 299.237 397.428, 303.779 396.419 C 309.268 395.199, 310 394.835, 310 393.326 C 310 392.330, 309.439 392.001, 308.413 392.395 C 298.745 396.105, 290.814 391.849, 291.840 383.500 C 292.575 377.520, 296.218 375, 304.130 375 C 307.713 375, 309.048 374.639, 308.754 373.750 C 308.158 371.941, 298.160 371.741, 294.270 373.460 M 314 384 L 314 396 323.500 396 C 331.278 396, 333 395.728, 333 394.500 C 333 393.310, 331.556 393, 326 393 L 319 393 319 389.550 L 319 386.100 324.671 385.800 C 332.812 385.369, 333.161 383, 325.083 383 L 319 383 319 379 L 319 375 325.500 375 C 330.611 375, 332 374.679, 332 373.500 C 332 372.278, 330.333 372, 323 372 L 314 372 314 384 M 232 379.500 C 232 383.753, 232.152 384, 234.777 384 C 238.003 384, 242 381.510, 242 379.500 C 242 377.490, 238.003 375, 234.777 375 C 232.152 375, 232 375.247, 232 379.500" stroke="none" fill="#ffffff" fill-rule="evenodd"/></svg>